<svg xmlns="http://www.w3.org/2000/svg" viewBox="0 0 64 64">
  <!-- closet -->
  <rect x="8" y="10" width="38" height="44" rx="4" fill="#251e24" stroke="#b068a0" stroke-width="3"/>
  <path d="M27 11.5 V52.5" stroke="#b068a0" stroke-width="2.5"/>
  <rect x="21.5" y="27" width="3" height="9" rx="1.5" fill="#c880b8"/>
  <rect x="29.5" y="27" width="3" height="9" rx="1.5" fill="#c880b8"/>
  <rect x="12" y="54" width="5" height="5" rx="1.5" fill="#b068a0"/>
  <rect x="37" y="54" width="5" height="5" rx="1.5" fill="#b068a0"/>
  <!-- sparkle -->
  <path d="M51 4 L54 14 L64 17 L54 20 L51 30 L48 20 L38 17 L48 14 Z" fill="#c880b8"/>
  <path d="M58 33 L59.5 37.5 L64 39 L59.5 40.5 L58 45 L56.5 40.5 L52 39 L56.5 37.5 Z" fill="#5ba8a0"/>
</svg>
